# xmcd
#
# Track frame offsets:
#  182
#  14095
#  30482
#  45782
#  60782
#  77095
#  92507
#  115945
#  134732
#  154045
#  171970
#  186370
#  207520
#  222295
#  247720
#  267032
#
# Disc length: 3804 seconds
#
# Revision: 0
# Processed by: cddbd v1.5.1PL2 Copyright (c) Steve Scherf et al.
# Submitted via: Collectorz.com_Music_Collector 6.9
#
DISCID=cf0eda10
DTITLE=David Bowie - The Singles 1969-1993 [CD2]
DYEAR=1993
DGENRE=
TTITLE0=Sound and Vision
TTITLE1=Heroes
TTITLE2=DJ
TTITLE3=Boys Keep Swinging
TTITLE4=Ashes To Ashes
TTITLE5=Fashion
TTITLE6=Scary Monsters (and Super Creeps)
TTITLE7=Let's Dance
TTITLE8=China Girl
TTITLE9=Modern Love
TTITLE10=Blue Jean
TTITLE11=Loving The Alien
TTITLE12=David Bowie and Mick Jagger - Dancing In The Street
TTITLE13=Absolute Beginners
TTITLE14=Day-In Day-Out
TTITLE15=Never Let Me Down
EXTD=
EXTT0=
EXTT1=
EXTT2=
EXTT3=
EXTT4=
EXTT5=
EXTT6=
EXTT7=
EXTT8=
EXTT9=
EXTT10=
EXTT11=
EXTT12=
EXTT13=
EXTT14=
EXTT15=
PLAYORDER=
